<mxfile host="app.diagrams.net" modified="2024-06-22T22:23:47.562Z" agent="Mozilla/5.0 (X11; Linux x86_64) AppleWebKit/537.36 (KHTML, like Gecko) Chrome/126.0.0.0 Safari/537.36" etag="CCrJPjpHWaBs0mFxaHQe" version="24.6.2" type="device">
  <diagram id="Y2XKEGIecEexu2YaMIRm" name="PÃ¡gina-1">
    <mxGraphModel dx="4008" dy="1586" grid="1" gridSize="10" guides="1" tooltips="1" connect="1" arrows="1" fold="1" page="1" pageScale="1" pageWidth="850" pageHeight="1100" math="0" shadow="0">
      <root>
        <mxCell id="0" />
        <mxCell id="1" parent="0" />
        <mxCell id="OsxLS3mOci2VCQLxVolh-3" style="edgeStyle=orthogonalEdgeStyle;rounded=0;orthogonalLoop=1;jettySize=auto;html=1;" parent="1" source="OsxLS3mOci2VCQLxVolh-1" target="OsxLS3mOci2VCQLxVolh-2" edge="1">
          <mxGeometry relative="1" as="geometry" />
        </mxCell>
        <mxCell id="OsxLS3mOci2VCQLxVolh-1" value="" style="shape=umlActor;verticalLabelPosition=bottom;verticalAlign=top;html=1;outlineConnect=0;" parent="1" vertex="1">
          <mxGeometry x="283" y="20" width="35" height="80" as="geometry" />
        </mxCell>
        <mxCell id="OsxLS3mOci2VCQLxVolh-11" style="edgeStyle=orthogonalEdgeStyle;rounded=0;orthogonalLoop=1;jettySize=auto;html=1;" parent="1" source="OsxLS3mOci2VCQLxVolh-2" target="OsxLS3mOci2VCQLxVolh-9" edge="1">
          <mxGeometry relative="1" as="geometry">
            <Array as="points">
              <mxPoint x="300" y="330" />
              <mxPoint x="458" y="330" />
            </Array>
          </mxGeometry>
        </mxCell>
        <mxCell id="OsxLS3mOci2VCQLxVolh-12" style="edgeStyle=orthogonalEdgeStyle;rounded=0;orthogonalLoop=1;jettySize=auto;html=1;" parent="1" source="OsxLS3mOci2VCQLxVolh-2" target="OsxLS3mOci2VCQLxVolh-8" edge="1">
          <mxGeometry relative="1" as="geometry">
            <Array as="points">
              <mxPoint x="300" y="330" />
              <mxPoint x="138" y="330" />
            </Array>
          </mxGeometry>
        </mxCell>
        <mxCell id="OsxLS3mOci2VCQLxVolh-2" value="" style="shape=image;verticalLabelPosition=bottom;labelBackgroundColor=default;verticalAlign=top;aspect=fixed;imageAspect=0;image=data:image/png,iVBORw0KGgoAAAANSUhEUgAAALoAAAC6CAMAAAAu0KfDAAAAq1BMVEX///9BuIM1SV6t3MWqsLcxRltBu4Q6toA1RF01R100tX31+/jm9e41Qlwts3q04Mui2b9NvIo/pX1sxZw2TWA+nHolsnY0PVssQVhlxJg8g3E3X2ZAsoFBv4U3WmQ+l3h8y6Y9kHXB5dTb8OY6eG03U2JAq3+puLm7wsbf5+d4ipHM6tuM0LBqfIZOZnLv8fI5bGkcNU+ClZsZPFJcbnrO2NgQLUmToKdLXW3hf2AdAAAIVElEQVR4nO2c61biShBGCQ65EBBB5KoIIqIDM6KOM+f9n+yITBgSOl07d1wr+zc0tWp1f6mq/kKlUlJSUlJSUlLyBWmdAZbfJB75Lz6Kiy1JTK1Kq2dYEuZtv6ZnUHuikT99fFhP/9YUQzJ6rYo7rBsiN+NmVc/gOw39+0BYqjm+kSOqD91KZSV/zjAfuo7+95wq3DKPVWml7oMJQlp9rOWuQdqNkZj2H88k8ucfYtJHIJz62t2utmpb8mcfxraQrMGShL4cCEm3xw9yNFZ7tVuOpN2c2cJvDn6CtD//FJLu2DOwXerrv+u5IO2msRHSXn15lUN/fREWsTeGHLrVdr0FW+cg7Vdd4Vdrb+9S5O9vNWGR7hVI+nnr35JEIM37vvCzgx9S6OIZ7d+T7TI8WHIFDqr54Ai7vVoTBPJRyrnjEGG0VgdrumuwZW5GYtp/aZ+pT7/EpI/A0+h87R6uOicCeS0K5Ns3Xejf3kRhvAY5b8/9y16QLXMrC6Qm7U+yMN6S7XIRWLcxJGnfiM9UjUC+is/RDUn6sBFc+I6IzNVCSHttECqQ7wPhkDoLIoz1u+OlL5FASs+lwc+w0KXtUrWRMF4qlm6Q59K1lPbq75BSZvlb+KKzuCZPo6PtsgUJ5EwSSKerLGWepaq52ifFy/latXilQQTSmIhb5o9q8T/idpmg4kWZdFjK3Palk/qf4qS+/yed0T4RxsPixZ92clIN8aS+vLrBlV25YrwHP12/DEk67PU6E6lDezsqZR6l56gz6dCuLgTW60kHbvArkHZXLF4c1tWFR84E8kE8qS8BgVxK28WZkIpRLYweFz0Q+0wqB2pvvrS7YoPRJMLYCxYvAYhA3sgC6StlxOLFnoBa12rrI6/ckQqyI1WQTvdAIN/FGY5NzqilKF58uFNUysjDsP0z9Vked6HiZXokuUHIVEY+qbV/w7DHqrDTbXJG95MXHUwg8VQGTF4SC6MHKWVMsder/v5byvyRKsaPri5B8eIHCeStNPWs7cbWTzWpeKmS4kUSRg8ikKY8DPscW3+Xx11EXSRh9CC93k2nKdYD79uuTvhQtUmEUdXVKXGnpOkAwzDXBeMuMnmRhdGDTWUW4jN1uRSfo4s4kxcdF6mMrWuLhXRG2UgantFP4FRGSrs4pLRjTl4Sp10USAkmjJGSXmFja7nXk5KOurqhHK2PFWk6OuJURp/0BRHGc1C8+CECaYpjay39EYl8GjVyJJDmtTgY0iW9i4qXCMLocZHKMEyX9Bl5GkU8o580LskwTBxbh9LcgOWt8MmLjhZY2ryKu2UcdFdnhI279LhTkva4AomE0eLFix90r9cRxwPqyNG4y4osjB5kbG2OYoXeRMJIujo1bp3cwMdJOxtJWzG3yxZ2Ax9DIPtR79Ojp52MrW/ECvI46RtiNLpMkPTtMAxsmU7UCtLpgjNqieMuIe3IKyNalAI0UcW4TpR0WMqIFiU/9hiNu2IUL35IKWPOomwZp4ru6uIUL35csNtl44M/6aRiTCKMHi0yDLuKsNubRBh7SYRxDxNIHHuTCWMakVfm8i8BD6cHcmCmcEY/oQKJYndQ8ZJYGD3mZCoDBZI5MIfpJL0CLUpIIJkwHhmN4uOStMsezuqnAxNEPkxpu2y5QwIpn1TW1fWSFS8BmEVJFEh2V5eOMHrMkYdTvCBF1nQrtTO6IxUPJ3Rgphs5G1sbeoG0x2CJiCNpQotsmSvdbYFjkzNqpVK8+HDJMOxaN5Wx78k9QLKuTg1Le/jYmjkwM0j6B8z4EJp25sCcZhE59HCGOcOcSXwHZnJYrxcikMyBmV7x4qfRJltGPQyzJ2S7MBNDHFCv11F5OJ0+mY6m09UpaZCTaqhKGTZ5mWaWdGpROhZIZ5GW0Sg27pqUA6PgLbWDHJhWWl2dmkZbDuHYooQmL0Z2Z3QH83AGQ0/DgZkcg9QD/rTbY1IBGFlHXrlDtt/DyYbTRIbdVLs6JcjDeXNYytjEaAQcmMmBArmP3S5eGPcgD+fM2zJOcwY+jhyYySG9nrm3KNkbMpJOv6tT00IWpd14wOkio1F2xUuACMMwOO7KK/LKClWQ23LAcVDFmMsZ3YE9nNCBmV/k+MUxZwI+Bl3SaXGGxtY2Kl6sszwjZxal6w1yYMYzGsWHWZQyNBolAAkkIEdh9JiTcgBQT3kkTSBja5nUR9IEJpACOQujxxl4pkr08hVGD/ZmrRbNu6/ZQt7X05PQaBQf5uHURZ5HV6eGvNCsJceKMUgygSxEGPckOqj1IiNHY+swMhxJE5CHMyTnWdzVReEO2H5DQi9KGD3Y38ypIs92JE1A7+sdk5a7KxHkxTFF0jMfSQPI38wpkl74dtlCLEpB0jUaxYdcp/qp0xeOs2ZObL+HWGkbjWITWSBPQBg9kIfzIOnpOTCTQ4ZhB6EX09WpYR7OfdJPZrtsWUXY7fUCGwwVyPiwi3xadKwBiEVpR1ZGo/iQG/gt2d+nR6aB3oE36nnd1UWBTWUKm7zoQDfwudynRwdNZU5MGD3ktJ+cMHo05KSf4BndIXk4M3NgJkf48//6aRUvfvQWpRyMRvHRCuSJCqOHxqKUk9EoPuEvjqX4ilc2hHs4i7mri0LYvV5Bd3WRUHs4c3BgJmeuFMjzExoChKIUyBMXRg+FQJ68MHocj61PYiRNOPJw5ubATE6w1zvJrk5NoII86YoxyNz3XOp9BWHcc+jhzNWBmZzGv2eqdbpdnZqz/W6vf4HixcfeolSY0Sg+ew9nsSaGWOzSnvKfAuTD3/9m+VLC6LG1KBVrNIpNo20V5MBMTus80V+9FYl7WbTRKD6rL9JglJSUlJSUlJSUAP4Hm5W/9THshLwAAAAASUVORK5CYII=;" parent="1" vertex="1">
          <mxGeometry x="240" y="160" width="120" height="120" as="geometry" />
        </mxCell>
        <mxCell id="OsxLS3mOci2VCQLxVolh-6" value="User" style="text;html=1;align=center;verticalAlign=middle;resizable=0;points=[];autosize=1;strokeColor=none;fillColor=none;fontSize=20;" parent="1" vertex="1">
          <mxGeometry x="340" y="40" width="70" height="40" as="geometry" />
        </mxCell>
        <mxCell id="OsxLS3mOci2VCQLxVolh-7" value="Front End&lt;br style=&quot;font-size: 20px;&quot;&gt;Vue.js static pages" style="text;html=1;align=center;verticalAlign=middle;resizable=0;points=[];autosize=1;strokeColor=none;fillColor=none;fontSize=20;" parent="1" vertex="1">
          <mxGeometry x="330" y="183" width="190" height="60" as="geometry" />
        </mxCell>
        <mxCell id="OsxLS3mOci2VCQLxVolh-8" value="" style="shape=image;verticalLabelPosition=bottom;labelBackgroundColor=default;verticalAlign=top;aspect=fixed;imageAspect=0;image=https://nodejs.org/static/logos/jsIconGreen.svg;" parent="1" vertex="1">
          <mxGeometry x="80" y="360" width="115.38" height="130" as="geometry" />
        </mxCell>
        <mxCell id="OsxLS3mOci2VCQLxVolh-17" style="edgeStyle=orthogonalEdgeStyle;rounded=0;orthogonalLoop=1;jettySize=auto;html=1;entryX=0.5;entryY=0;entryDx=0;entryDy=0;" parent="1" source="OsxLS3mOci2VCQLxVolh-9" target="OsxLS3mOci2VCQLxVolh-15" edge="1">
          <mxGeometry relative="1" as="geometry" />
        </mxCell>
        <mxCell id="OsxLS3mOci2VCQLxVolh-9" value="" style="shape=image;verticalLabelPosition=bottom;labelBackgroundColor=default;verticalAlign=top;aspect=fixed;imageAspect=0;image=https://nodejs.org/static/logos/jsIconGreen.svg;" parent="1" vertex="1">
          <mxGeometry x="400" y="360" width="115.38" height="130" as="geometry" />
        </mxCell>
        <mxCell id="OsxLS3mOci2VCQLxVolh-13" value="Buy-api" style="text;html=1;align=center;verticalAlign=middle;resizable=0;points=[];autosize=1;strokeColor=none;fillColor=none;fontSize=20;" parent="1" vertex="1">
          <mxGeometry x="520" y="405" width="90" height="40" as="geometry" />
        </mxCell>
        <mxCell id="OsxLS3mOci2VCQLxVolh-14" value="Product-api" style="text;html=1;align=center;verticalAlign=middle;resizable=0;points=[];autosize=1;strokeColor=none;fillColor=none;fontSize=20;" parent="1" vertex="1">
          <mxGeometry x="195" y="398" width="130" height="40" as="geometry" />
        </mxCell>
        <mxCell id="OsxLS3mOci2VCQLxVolh-19" style="edgeStyle=orthogonalEdgeStyle;rounded=0;orthogonalLoop=1;jettySize=auto;html=1;entryX=0.5;entryY=0;entryDx=0;entryDy=0;" parent="1" source="OsxLS3mOci2VCQLxVolh-15" target="OsxLS3mOci2VCQLxVolh-18" edge="1">
          <mxGeometry relative="1" as="geometry" />
        </mxCell>
        <mxCell id="OsxLS3mOci2VCQLxVolh-15" value="" style="shape=image;verticalLabelPosition=bottom;labelBackgroundColor=default;verticalAlign=top;aspect=fixed;imageAspect=0;image=data:image/png,iVBORw0KGgoAAAANSUhEUgAAAK8AAAC6CAMAAADvV+1vAAAAk1BMVEX/ZgD/////YgD/gj3/XQD/0b3/nGf//Pv/oIL/agr//vj/cBL/aCj/4tj/z7T/6t//WAD/u6D/rYX/9vD/4dL/3Mv/UwD/7+f/upr/5dj/jlT/ik3/kVv/cBv/ey7/zbj/l2f/p4L/fED/kGH/cij/mXP/tJP/o3j/wKD/nnH/h1X/xqv/e0b/ro//nHr/eDT/ZRqEaAm9AAAC5klEQVR4nO2di3raMAxGHWGawbpiCIRQwp0FKNvg/Z9uCV27rUtsZctF3fefB5CPheAjtuwoL2UQzXsqj948Gngspg/xIjeEWo4mAS8GB+V5wVAbyh9LkaEhZ7RVx+iCGKT1elahb7ApGul5ONq4hY9XbQmh9Jb5KXF8hzbb22iRK8jEOuMsxK6qklADcvlSOLXH6M+t2b3FcM6Z6xsZ11jKjOwxuldnCL1zzJntO3elN03O0h4jYYTYjyvyzf8h+32wXt8Wwt+4fRV1K/JlYf22+B+c5duwryO/8IUvfOELX/jCF77whS984Qtf+MIXvvCFL3zhC1/4whe+8P3ffK0hxPnSR/jCF77whS984Qtf+MIXvvCFL3yr93U8HwefGb66SV+yNu/Otox+Wp006XuwhYgY6VV0qabBmue7OBdH6C4Y6U0TbJ1ztb6K9knBklT/eM/STYVPVZzC4I2lSPfi0SuHuxc6PddRhl+EaRnf/TWn87SEbzaceUX/hG37POt/IAxH0zK+rUM6Hrwn3+w767etUA4zadugHPrQtkE5aNm2QUkYp3EAAAAAAAAAAAAAAAAgF0rJ2Ztw3gnVEnR9Ohwf3nJOTl9EGuunbsHNQ4PkwtklbRa9sezJjjvShPXG2rYf7GWVBMVW3bQmZNWwcd4olkiqCNq6dL0xb6e/GYz7RjxWo0pThIwL5r4K8tWM7odIUD0Q4wpK59WSDQLfeoFvvcC3XuBbL/CtF/jWC3zr5b35aoavpP/rrOchSb6WFvgfBN8EPb/R3Ok7uwjKrzLOAj4KSm92PsB3lIOk5ZIUOtp93W8haBaiyHLv/DQWpps1+B/GBWuUwVladm/oyynqfnrLeJXslKzafYGIrvd/cJW18gsAAAAAAAAAAAAAAAC5CNs0sEN7tZa4rl2EXqtV2LZECcKu8uXtcxSiY195M3GN7kXozix7n/tsbQzJx5jstfCpr+dPRo8d6TyOJtn+6HduXU6kh2KsaAAAAABJRU5ErkJggg==;" parent="1" vertex="1">
          <mxGeometry x="398" y="580" width="118.55" height="126" as="geometry" />
        </mxCell>
        <mxCell id="OsxLS3mOci2VCQLxVolh-16" value="Queue&lt;br style=&quot;font-size: 20px;&quot;&gt;RabbitMQ" style="text;html=1;align=center;verticalAlign=middle;resizable=0;points=[];autosize=1;strokeColor=none;fillColor=none;fontSize=20;" parent="1" vertex="1">
          <mxGeometry x="516.55" y="630" width="110" height="60" as="geometry" />
        </mxCell>
        <mxCell id="OsxLS3mOci2VCQLxVolh-22" style="edgeStyle=orthogonalEdgeStyle;rounded=0;orthogonalLoop=1;jettySize=auto;html=1;entryX=0.5;entryY=0;entryDx=0;entryDy=0;" parent="1" source="OsxLS3mOci2VCQLxVolh-18" target="OsxLS3mOci2VCQLxVolh-21" edge="1">
          <mxGeometry relative="1" as="geometry" />
        </mxCell>
        <mxCell id="OsxLS3mOci2VCQLxVolh-18" value="" style="shape=image;verticalLabelPosition=bottom;labelBackgroundColor=default;verticalAlign=top;aspect=fixed;imageAspect=0;image=https://nodejs.org/static/logos/jsIconGreen.svg;" parent="1" vertex="1">
          <mxGeometry x="400" y="790" width="115.38" height="130" as="geometry" />
        </mxCell>
        <mxCell id="OsxLS3mOci2VCQLxVolh-20" value="Queue Consumer&lt;br style=&quot;font-size: 20px;&quot;&gt;Buy-jobs" style="text;html=1;align=center;verticalAlign=middle;resizable=0;points=[];autosize=1;strokeColor=none;fillColor=none;fontSize=20;" parent="1" vertex="1">
          <mxGeometry x="520" y="825" width="180" height="60" as="geometry" />
        </mxCell>
        <mxCell id="OsxLS3mOci2VCQLxVolh-21" value="" style="shape=image;verticalLabelPosition=bottom;labelBackgroundColor=default;verticalAlign=top;aspect=fixed;imageAspect=0;image=https://kafka.apache.org/logos/kafka_logo--simple.png;" parent="1" vertex="1">
          <mxGeometry x="383.78" y="1000" width="147" height="81.67" as="geometry" />
        </mxCell>
        <mxCell id="OsxLS3mOci2VCQLxVolh-23" value="Event Streaming&lt;br style=&quot;font-size: 20px;&quot;&gt;Apache Kafka" style="text;html=1;align=center;verticalAlign=middle;resizable=0;points=[];autosize=1;strokeColor=none;fillColor=none;fontSize=20;" parent="1" vertex="1">
          <mxGeometry x="530.78" y="1010.84" width="170" height="60" as="geometry" />
        </mxCell>
        <mxCell id="OsxLS3mOci2VCQLxVolh-25" value="" style="shape=image;verticalLabelPosition=bottom;labelBackgroundColor=default;verticalAlign=top;aspect=fixed;imageAspect=0;image=data:image/png,iVBORw0KGgoAAAANSUhEUgAAAMgAAACsCAMAAAAJ4xPgAAAAwFBMVEWRJibGMCv///+aKShiGxzJMSuOJSaLJSaXNzfAAAC/LyqdKCelKiiWJyfFKyWxLCm5LiqIAACrKyjFJiDEIRr9+PiOGxuPICD46+v68fH25OSDAADUcnDKR0Ty2djpvLvkrq3JPjrMT0xaGRvo2tqMExOUMDDuzs3RZ2XXfXvDFQvPXFmLCwuZPz/ZwMDsxcXaiYfemZfipaS2f3+sbGy9i4udTEzQsLCoYmLEmppNFxl+IiNvHh65OjetNzWjV1coJPdJAAARgElEQVR4nM1d6ZqiuhYFLUBwFlCwFIfWUrEca+7T5/b7v9XdAbVQk52dEu9394/T3+nGwEqysoeVgFa4t/lhGG0Gw+Fg1g39+91Gu1/TzILZYDu2j+bN97Pune50TyDhYNfT7dg19IMZnh0vt4O7YLkfkNl2qcfeCcTR3Fhfbjf53+5OQPxdv+a6VyjScXHdmj4Mc77jHYD4wWZuxzUuiKPVbHs+C/K8a+5Aws1uZHsoitQ8u7+f5TcuOQOJ9j3XxgcjQxfbWQzzYn6uQAbzvkcZjO8Z5tXGiyiXe+cHJNjpnvs9GHyic7C4Xn+Yw+3zAeJ3B8tzfo9GnmiGXa/Itr29mS15AAkYv93zfl7uwaNfexGYTPaIM1ixPR/eNsVuBxLt5vo1v91BIRrCKnz+t57tLQYLLo1ce7wY3BCL3Qpk0wN+c7rYHYOXCKOdfRoqA2bQctANC7pgztU8fbz98Qy7BYgf7CCSEjyWvU8vGo7BkRvg5t3lMOnwTcz/AcMKE2+5+dmw/BxId9O7nDnnSI6dG23Hen++P/rxpYv8KHEu++gH4/JDIP5mN5b473j7jXnwTeQZj+tnVrPdhTrzfwSku++NYrxjwTyu094RPKbhuePt7O5Aot6oJnQS2aeZ8/pAMrOO5nqjpZKfVATih3uD5x4urQZrwJK3mg5tEg7WEbXYXkRk5isB6W62NiEkhIV2NN9zJ5a/78cK0VgMCzaRLXQg/my3jGPCYMQsNRf1pA9uMibHx2wR6+8GlMSFCsQf9vo2YXq7tr6TZEzBbOdQmjp1jL7cyYN9GpBg4dREnu8cxpzkz8LNGGJMaoAMubE+ly1iciB+MOhT+M06b7wJgiAMKfUrf7/sE4HoSf3F3QVYszIgMA90+jyAVNyujee97W442MyiqBsIMPlBtxvtyEnLoW2skoQDYZmrpIxw3Xmu68UxIHJH42Vvce7Ywu5sM9jvdovecjxSwsHM85Y70RTDgEBk69LmFB9RDbI/z+4dAyd/P58vx/2RATg9SCb5HDEM7I5u3J8PuYMsBOLvRi6F31KzB4cWZzUPWhQ8/xFFo6w5aN+xOHrBmWF8IMGsJ65MQUdDT6fGnkwCpFbrHnpG4tQN3alXq9av3/+0HHTWAfPHg0vmc4D4s6Eosq15se3B1J/3Fon1YK6MYjtGQy97kXaOg10EKBqVYrVYtB4eHn79KbZ0fIrZo+0mQIEEw8VlAn76sT3qwXI0SxajxMKgG80Gw13PwUqLdhJlDJABgSnVqlQBRgoEoDxYZQeFUovdeZb5F0CixZgf2cLiN95HAoXDh8VoqwvTLHfJLmoIkRpGvVIuHiwFwqD8seooFMPzRvNTYJoF4g/6kLnyfgtB9U6atXUXnmB18CDtjUQDYjitYrVYvASSgPlTwWcYWxYXwTmQMNrGAs9X88a01CDcjrjLtTuOCnMe6xgzytUMjHMgDw+/H7Q6jkWHBZ4F+wcg0VC8TLm6fDSOFi248yvedTmNG06jVT5DcQUERuXXP5WGBIq3DVIg0XYsrtnWRgPZ42fM3/OmUK0/v3wUw3DqleIljGsgKVta+HocL0MtnRDIyhir4ADbcpFc3sBwvvktAZJiKaNQ7K1WmBloNOXyMm/Mwj4hHqhzxgIBkk6xhrg9Y6RFktjWVqxmgAfHql3MGi0hDCEQGJNOXTwmxr8adzXJAlGuMHFZkjUuNzAgv3790VBXb+hPmuSmuq0qXvj8IvXZbR2VqQUwJOuW4ZRLWkMSp9dGikC6tjzyhysu/YcIyK/flsyTGI2qWdI0R3JTt6c2IB4tn4RnaxGA/CnjCQqziqVpAKSIx//gbxYKOnJ3TC9bGcAWxCECvzU82mJtOHUNcDAgZrUuyTljcvEy2I+UxFDGlnKRG6Kw+Ffi0ZM4rWxqWgpEMzXZL7xajyIm+bulS69XHR6FxSnVq6Dx10O1gYfxSTfUi1qKIwECUMwKPr8M1x1tJUWyWU9XhnG0jGNJE6uWFAXAaFW1k5UOf5qQx+C/q3l2vBjw6juQXjG5kFj70nnKNSRWx4jFgsiKgsJpmZZ2DYRBqdQlDUCuDDnidj/YbGYH20B6uFhC1kWkBuQPsa2POG3DdAc/WS2XJZlhCqNROYORBZJwRT6iLGtnj+2MwJwa/E8sSqcubp78sD/f7gZDvmjF2FJvyItdQI3ykRpcIAxKtSLvj6SxGjPSpYnQAdiX22GS7SOilUHYMMHczxWMSyAJ7+WLHs2MQ9ko9sa7QZSh1oys9XBhmNcoeEDArKqkriS9GwPgjvrjZY9BuFwbCCGMCEWjYlmcJxYAAShaizBXuRCACbEzni+2+03EDwikMaWgafDhZf5oiIEkxJf5+wtLVgFvnBa+EAFgQJZFznE4raIYhhjIkfjU+7isdjfoCmWEk1FV3XMUEKdXOQwnAdFSL0mD4s6JG+H8rSx95FmjKGAGEQiDUqyTiM80N0qMjNVNucZcuGahg8Gss5JdYcIaRiK+Zy/30vS+a6gJFWydKsphaFrzTX5N4vFpo9JfSEpHc6WJxXXhXJuuAq1NgWJWSVBqnt7fIziGKjiyQbrEnkuTgvbSJF0LxEfKSt93Z5KlaN9FNFKYWE6FMqWYtaevQE8tWE1p1wMUGvFjID5vEQt7xAFhyRYZRqe5+mKta4XJX9qYMCzVCpX4HPV1T3PpRpK/EmFoTfNtUkiBFIK3xw4ZCtHju16/d0H8rmgv4yWMSpUMQ7O+Jod5nFTjJ1pTAQqV+LX+PksWSnklUXXJKCAX7J9666CPfLw/UX8O3UAjPpPreqfgV6bpJqlIWtqhoTA1CKGSW/gZIIXCV4XeFXSP79m9dNtFJK+jNlpVBRjFYwro2YtZRrHaL/R6hd4fDAqR+PF4FxVCSaxoJHen9iRkf9n6QuxuuwfFiu1Cvq5MyJrTitJCIDPm8Xso0ekuPO3DcuO85FPzxgFTrBanvRrQYpXcLwmWFiU+rvG14hOMlsqsNnkhebzQChs966cMQ6Vzjh7/hp034MLp0wBiJb5gbYy02eUGXlYsQ5Oxayg04nNhNOi+71Cv4jfEVayS0rLCDGP99JPSi5ILBxji1cVwxIpVQwVK4vEVoTAXTp/ElomUdgynWNKECiP0lwpZWI8pTDCAodRPWGBkNLREsRJekRKffj/LqjRIST7MXfp4w8TFR9s5KlaIishSTbqfuvJUokbrFXL3yFJtmDdV1laiWGFBIIscSFnzCUqxheqrLC6kw4DWsI5hheBvxQqg4BerET+N5hAYZObJfBRz3+eKlWZJFFFDr2gqzLeKgvC4oRA4yGS0s3p2RrHCQ0C1cOjoJTMtGsk2ASoMiOPQ4CeJC7NtZRSrhKcYFPD4VRUo1QqTbVLT2dYscnBtafiaka5BZz85U6y+Y3xhN9D7VEuSyXK50qq3WpVykZ6/gu9DZwdJsdKkilVDBcrRC5kKy63WQu9vGC1eQHCtWFnVOhrNGoz4Cl5SyUzm1dCOFJW7OEVsBkWyE1qN+GQUktgTLXfxq/HgCfCiT5pg54olceEoQx2s+xDFSrIfkm1kzw+KtJohK3eh+og0mlUL9RGT7LtgipWEligQS5rGJvtBbsRiSnqMlbvkdaKbFatbiS/zw8yFE8pdJMVKUr9Sq6ydmyVZVZgLJzGRoliZ0jRW1eOfYFh4H9FH+7kUaKTqNRaZH26qTHzTxBcThXLX9F1VsUI9vkoxgUW3+JooXadO1m6/hEyxen8m3hsic3wm4C7rDAausuC7Nc6t03z/+IFiJdk6xIgvfwJ8oUoUK/LQdlZfJ8UqfHukSLvpM8gUq1Tgx5rAxRW1GWpZ/zmqyEk1PlhNyYpVspMTeZJksUGeBCva6GpZQrJceO4uK/Ss3ztKeWwDD4z4BTET35ibhm90FIdNP4Ztszd8pEC6g0VdSbFiRR81T2ayBBSFwX5Bf4BMPduwx5sESLhfsjO5Vzs38ZakTtmpw5OBmSb7DwTpSPKpLPWc5/SeHgGQzfj4tjinJdppx21Oou+yf3LqrQpYi0lM2EJVV4g9eXuUvblW2GWO9Ki1mAQZssMOaREFNZX+E8TKxki72EGVlgJzJL4Mp9KMFpa7jH+1q6Nd7NysmmJVxHNUDIaCC0+dGN+TGo0ST+hRrl9JPb4IBncvsvAuwlgZCFHSWoIHUFAwUiyKu1J1tbKSpYnL8kbFhAzRFElWLI1VqV9ZMo9/3rhKR8H6iIx4w0yFHrGqxRZ3hWov2+QiP72SNqyQvaDlrkQWZlclObt4U6xq/Yp04IH1j0IJtShWQTNqy0HoEedqPyA+nkyCq6IzHC1+nIlGpWNPovIbfWNeigUZYnZmkNyQhVWCjUYxc+2pHJQE50gopFa/ShSrq9ZoFarjA2Fb2q9bytS1LGRnwWEfknJ4fKZYOQqyKprA8QpQpctfI6q7Wv3KZDWrk2IFLlwhf7XEvu+gnF11yEWlEQ9omYCmlMBBPliutFLBiu788N0aBnMJBKEHpaquuvVC3dimb2z9FmXRvNovWyxw4qvElGowsFwY3eEnEHrwY1aKxKfDwHJhjpIrB5L6NSQKvItihe1fk6bCiKwAxEdq1/krVuJql0FwY7g+gge0rJaWC1lSVVx8I0qEKRF6ZJmsWmokgoHuU3BIgXL7r/w+eCZrqO17vm4eKwSzrJsWKD9+kO6F6t+3KFZI+nrc/EIa7+arT7yhbNO1yvalkyXFJAQGddZ2Hl/DgvZFFBUkmSzLDdT2ckLqgLpwapGoM336SIrYr8/ESjx+dN9QIr4suqXz7tl8naTV+PCtTZVH8C2GyYumSA8ggVGn7+yaNl/XJ33EX5fompWc+PLyJ1vSkd3G9HFtP/5dh1mhx/9qKig9qMdPxFhcsSqKuWY4CqJbu/meea3wQejx31ZTsv6WEh/b9yzsVBNVrAiHi4/Wnj59nh2sOx1NCr7+ToknErWDH0OzHw4UpqmI5iUjGD1paz+vXtbnh+oyrzcMPl6bTYX8D/P4nH3PllkW/oC5cLonaj++H6RcPpBCIZy8PCod5MPTILaInowVI0Q1aHBC9CJN+3H1wTlxfvkK0OCt89xWkHglopXDtphWWvgWI4VSFzD879VgcIEUkjOJVB+pJW4S9fgGKlnJZfmsTdurVz4M/mty/fXLqklfw0hHFAQwGiowmp/X1ECBAJTJx+pRYQ3T8EMFIhgqSu5z83ONvYxB+AbmYP2uAkX+kq5LGCrFbK35+DLB30OKvRO7+9JuqxBffMyJY/RzTx14ijfpe8rwt5SHX39NBeIzfYwgwLHCBVmQ7jw/fX7IUEiBJMR/UiC+bJOinsb75Iyy03x6WZO+eEF4k//ko0Q/uY+dekxxOPTDG53Hp9PB+9uBgIXrkhrxhQpYIuUS25k+dj7oH+uhfu2i+/KkQHxuXmyoaN7ttvmp9BZV+vdHgq9PjU589sIx5/u1/EwhUTg3O52+v4l9341A2Ax7UyA+O7pfPxw8d5KTSdSy5HPz9UMRhuo3evzJ1xN9AySLj9lr/spKOk+zKfN9OQApsGGB4EUhLzYTo17daTbfuj/6tNhPvmPVfS21VbCQUUy1FcX35QaEEf+1Q8/AiDCapdcfw/j5t95C5vFzhNJulr5oLjxnIAePTyc+DuOxpL5O5QWE2fpdqSDGN0hfV2v5ve4KhHn81W3Eb0/F6ev/EkhCfIV3KF3YtPkXSV9VLI+PnwLx2z+CAunrrdQ4WV6fo/1qKxN/+vi5/j/8ZLO/fp8qkKUznb7m+p32PD/ZPHkF4pNgtJ/fX3L9FnjeH9GefH025Sed2sDwXEeDWd6fNQ/Wr01cNmKHovJieMby/9B8OHlBoEB4q5C/Klj+QApMAetw82L429INcSFqdwGSFMQ6l3nxtPn0+XFLXIjanYAAlI+XVfMUibWfm8+ft4W3ErsbEBYer9/enx8Tg1RjkvN6e2F3BFJgXysIgyiKuqSPb95m/wVKzKUORmflrQAAAABJRU5ErkJggg==;" parent="1" vertex="1">
          <mxGeometry x="156.04999999999998" y="1200" width="127.9" height="110" as="geometry" />
        </mxCell>
        <mxCell id="OsxLS3mOci2VCQLxVolh-26" value="Cache Requests&lt;br style=&quot;font-size: 20px;&quot;&gt;Redis&lt;br style=&quot;font-size: 20px;&quot;&gt;Database key-value" style="text;html=1;align=center;verticalAlign=middle;resizable=0;points=[];autosize=1;strokeColor=none;fillColor=none;fontSize=20;" parent="1" vertex="1">
          <mxGeometry x="120" y="1310" width="200" height="90" as="geometry" />
        </mxCell>
        <mxCell id="OsxLS3mOci2VCQLxVolh-29" value="" style="shape=image;verticalLabelPosition=bottom;labelBackgroundColor=default;verticalAlign=top;aspect=fixed;imageAspect=0;image=data:image/png,iVBORw0KGgoAAAANSUhEUgAAAMgAAAA1CAMAAAAzilRrAAAA0lBMVEX///8QqlASkk8hMTwAAAAeLzoXKjYNJDEQJjMAHiz19vYAGSkAHCsRmU8AABuIi48AABfP0dLe3+CipqkAECMAABMACh/k5eYAAA7GyMrv7/CQlZlgaG4Ai0AAp0gAAAa1uLoqOELx+PMAozoAhjRPWF+rr7JqcHZYX2Z9gYY6RU5zeH2anqG23cJPtW2ly7KHyZlxwIZvsYdivHuDupWWz6fO6NW72MVJoGrZ7d9gqXtHTlal17WVw6N5wpDC48wymVstr19oo4COs5+2wr+rwbh4rNkoAAAHCUlEQVRogd2Za3ubNhSAHQsJkBggkMECJ4GkxgZ7Wbuu3Vqv7bpm//8vTSCJm0m7p4nrJzufZNDlvNK5Ic9m/0f5+dwKPJXc/XJuDZ5GXt7O8bl1eAp5dXtx+eu5lXgCeX11cTG//O3cajxaXgmOi/nzJ3lzKzgufprPX3w4tyqPkrcNRw0yf/H7uZV5jFxdtCDzy5tza/P98qoPMv/j3Op8t7yThqVBLp9tXnx9NQCZP9e8+E5zaJDneiQvxyDP9EhuPl+MQS6fZQj+dHsE8jwD18erY5AXZ8slcaIkFpL0TRwnWIp4OWn6dxfHIGdz99KILAiRFV0b10vfqjZFol/5dp5XeQ6QZcFqncbjoTe3EyDz9z9W/1ZoUdpQkHhhmJZr17EI8uQbXKRrU7zZlOXKZMh29qOhbydBXvxwhFY4A2gnm0nIELTz9lAOEIKmUTAA3Ww47s+rSZB3P0rvI8ELYJXtj60NkK1JVkiB1LTQHI57OQlyxgCMXWB53c+NCdBBtTuQ2RYBPxmMezUNcr7kjqMByKyCgISyKUBy9dQzgTv099fTIOf7vhqDcAJgJePtEGQxHHf3H0BwPQ+mVP2MaTBePaDBMLY3u0X5KEjGlI5TAA5Gs41BZgCCiI5BVsgZdBqkkWmQIFwZdBZvXEIsLn7zKnIYoL0p+NZYLli01QolmWcJs/YYIdG6UzxJfWPpRocixsFGPQ5zY+kzVvbM/QgktYCZjkAoc9ajHfmGae2Naxsh6hkgFwF+SZODgZADYdSSiCcrTrODg5bNcoFhEAvtqOubBAEENEm4ADQJSgfZrrEkUh3H9zgPc8uM+MMgmQOsXQsi0noShw4cp5F+hTLp7LFniUhXit2mlZiH7WgSZwi2kSS2iNyu1AFu45RBaQGQk5QGfGsCnbgKlzTbLow732ybbcgitR1bC7J2Y0ZRS6wbAbRSIAAaQpYOrNKxeb/5ZvhdIztrGoENSKbnjpT5HyxttqUJfPkwNSGQrS2ClVQPWpumkYh38pBix9T5IoeoehAkcHsgoCjCdFcxaLLdEOTTdGbvJcQtMgPdYlzDKaSMKPsViiGo2oWtVp5xB4JEomvtKmgHCrw9howBV7ePQSKd6lsfwVzYrD30kpvpzN7rsWpBSkupP/MsJ1QvnazrqNYpHA0S2xDFElhrt0JWMx2GcKF9HLd7MAEisrjpDRcQBwu69KLkbqKMHxSNHUhqaq1FS85ygB1IKLQegQhDkoM5g8qrKiSVSRZg0Ya0FUKbh0BCEyhD6IHUIQBW/W79Ymu6jJ8GsYtmVWEoLQgnEOEhCNYgSQRc2TCZdH9h+h1IaekRxyBCfZgcgSSiSM4HSelmwrQGH1Z9EG1aAkSeSAXNNhBSdnQiLcisJDCvjWy3UFsf+yBqI49n6Yr3CAQzYKvf2x6ICBAjkF619dOUZfWcfQJki9BWd+QESf/rnL0DwSsXWatdvtDc2AHyVBtMy26f+73qt2Y0IUqOQbCIdM1qlFIVQI+ug0ZF/LoF8XogjlRibwNTu2xoK7rQ1nQdSF0SsO2u6DaxDc2z+tSXupoZlPF10oQu70bo6rfJBbUKPAh5oJb4OL6gG34fHiaiVgsSO6DNBiI6a6IeiK1BwuWw7hYxVyd0bJra1+sggLrAGpio+4ISIFC3N1ZdBjWlWobVNG0E1q4+/KrKW112bawV4VeZhUfkzoi9s/XW7U2tChapXQ4OKkIKPDDqtSii5Ms9Ay0kZQBEahm8ZyTvyjpR0StrxCkhh3qyAAdeONNHppOi4hj82RMXSDhfjOvStYJoG4gVEyo87aBK2w2DxAuSJLPVcdX9AOLNkNASdRKtlSx8AAis1qudlykriisRr8M4idPrSh8bDcVgANih3IfpxryGqWYPso1I7MDc7YvCyxeWyjucBuEs09oqf/+jAfmrz5EZhu/7huHNEsNY+P7SEAcKjYXrLgxDdgmBG/mIXe+UftCIhBgGF4OXLGK+0dhZKXYa1WISohwbl+ItQ9f2Xmsb14u4QsRCxqLaZe0RiuWXYlrGXPHGXe/1CQY8pl0vmRU/vz/2dBzU5WYSi3FBLO+b6sun5n6pdU8apilvJ+Oci0jCxexJJlvSOLKIVDlZRqIIbd034ft03/8kkDdaQS3D2ytcP61nE7PHePii/+uzILn7u+Z4OzuNZEsZ0gKvuyY5gdx8vrp6/+XydLcOnpHppsg326/0fKTc3N1+uL+8PNV5eFGvVq3M8uGej5fX/9x/Odl1lts/hMrnD/d8Arm/p9/u9J1CoNMWVnS5+lrXxwu/P7odeTIpbVkzColJdeI/kuh98u1O3ylYJL/FpuC82BinC1lKgvsT7hQuEWP+tUG2p7NfLcH9SadPeBgW9HSH3kl8WpAfKM/yz1wp/wKZn5jwSmv3rQAAAABJRU5ErkJggg==;" parent="1" vertex="1">
          <mxGeometry x="448.83" y="1230.5" width="200" height="53" as="geometry" />
        </mxCell>
        <mxCell id="OsxLS3mOci2VCQLxVolh-30" value="Document Database&lt;br style=&quot;font-size: 20px;&quot;&gt;MongoDB" style="text;html=1;align=center;verticalAlign=middle;resizable=0;points=[];autosize=1;strokeColor=none;fillColor=none;fontSize=20;" parent="1" vertex="1">
          <mxGeometry x="446.05" y="1313" width="210" height="60" as="geometry" />
        </mxCell>
      </root>
    </mxGraphModel>
  </diagram>
</mxfile>
